#!OML:ASF F:\VICON\USERDATA\INSTALL\rory3\rory3.ASF
:FULLY-SPECIFIED
:DEGREES
1061
root -4.79656 17.368 1.83906 -503.173 -29.2061 -546.901
lowerback -15.0191 0.961355 1.41113
upperback -13.5883 -1.17097 -4.23667
thorax -6.28845 -1.89893 -5.3284
lowerneck -3.84095 18.3736 6.22191
upperneck 10.5334 25.3614 -10.9902
head 6.02186 11.9178 -2.30558
rclavicle -8.95773e-015 -5.04913e-014
rhumerus 304.587 -40.2892 -385.119
rradius 14.0407
rwrist 17.1481
rhand -13.7969 12.4442
rfingers 7.12502
rthumb 12.3249 -17.1725
lclavicle -8.95773e-015 -5.04913e-014
lhumerus -6.68451 -0.161949 80.1151
lradius 19.2254
lwrist -30.2133
lhand 1.51324 20.7648
lfingers 7.12502
lthumb 27.039 48.8492
rfemur -49.7718 14.2001 12.1524
rtibia 21.6552
rfoot -75.9204 -37.6689
rtoes 55.736
lfemur -3.26352 6.35131 -15.0488
ltibia 3.27899
lfoot -43.2107 31.6758
ltoes 51.0609
1062
root -4.79044 17.3777 1.86158 -503.223 -29.7227 -546.889
lowerback -14.6372 0.969562 1.58677
upperback -13.7054 -1.17555 -4.21353
thorax -6.62926 -1.92047 -5.39345
lowerneck -3.81864 18.3137 6.11635
upperneck 10.7944 25.2879 -10.837
head 6.06063 11.8734 -2.254
rclavicle -3.72721e-016 3.33958e-014
rhumerus 305.417 -39.4908 -387.563
rradius 14.1557
rwrist 16.2299
rhand -11.9206 12.3543
rfingers 7.12502
rthumb 14.1335 -17.1449
lclavicle -3.72721e-016 3.33958e-014
lhumerus -8.5061 0.243238 80.5587
lradius 19.0821
lwrist -29.8612
lhand 2.18729 21.4826
lfingers 7.12502
lthumb 27.6837 49.4651
rfemur -49.6599 13.883 12.4016
rtibia 21.5635
rfoot -76.0653 -37.8053
rtoes 55.7587
lfemur -3.58438 5.96657 -14.964
ltibia 3.73924
lfoot -43.8365 29.9129
ltoes 51.0639
1063
root -4.78267 17.3819 1.88436 -503.236 -30.0917 -547.046
lowerback -14.2446 0.956161 1.49253
upperback -13.7478 -1.16683 -4.20828
thorax -6.88513 -1.90355 -5.32424
lowerneck -3.95348 18.208 5.89475
upperneck 10.986 25.1439 -10.5958
head 6.07105 11.7964 -2.16292
rclavicle -7.03698e-014 -6.75868e-015
rhumerus 306.128 -39.0635 -389.566
rradius 14.1732
rwrist 15.8558
rhand -10.0374 12.4475
rfingers 7.12502
rthumb 15.9476 -16.916
lclavicle -7.03698e-014 -6.75868e-015
lhumerus -10.2078 1.6236 80.8489
lradius 18.66
lwrist -30.9535
lhand 2.54831 21.3761
lfingers 7.12502
lthumb 28.0289 49.3027
rfemur -49.4702 13.5947 12.4509
rtibia 21.3618
rfoot -76.1256 -37.9587
rtoes 55.7533
lfemur -4.1841 5.62345 -15.1677
ltibia 4.78461
lfoot -43.5442 28.7922
ltoes 50.8479
1064
root -4.78519 17.3835 1.89219 -503.21 -30.7861 -547.202
lowerback -14.0487 0.881114 1.5837
upperback -13.8185 -1.26886 -4.16285
thorax -7.084 -1.96188 -5.32978
lowerneck -3.75285 18.1287 5.76819
upperneck 11.0307 25.0362 -10.5302
head 6.01921 11.748 -2.16323
rclavicle -4.28132e-014 2.06736e-014
rhumerus 307.315 -37.824 -392.433
rradius 14.503
rwrist 14.4355
rhand -7.9286 11.9658
rfingers 7.12502
rthumb 17.9775 -17.2233
lclavicle -4.28132e-014 2.06736e-014
lhumerus -12.1115 3.36036 80.9487
lradius 18.2066
lwrist -32.529
lhand 2.15287 19.8101
lfingers 7.12502
lthumb 27.6508 47.7979
rfemur -49.1637 13.0457 12.7698
rtibia 21.1885
rfoot -76.0581 -38.0306
rtoes 55.7548
lfemur -4.74998 5.01313 -15.1884
ltibia 5.76027
lfoot -43.0448 28.228
ltoes 51.0594
1065
root -4.79163 17.3891 1.8982 -503.302 -31.6237 -547.137
lowerback -13.8794 0.965595 2.15604
upperback -13.9197 -1.21882 -4.33814
thorax -7.30918 -2.00717 -5.83935
lowerneck -3.11352 18.0823 6.1755
upperneck 10.7592 24.9455 -10.6507
head 5.88749 11.7549 -2.32177
rclavicle 2.62147e-015 3.65764e-014
rhumerus 307.977 -36.5688 -395.298
rradius 15.0996
rwrist 12.6625
rhand -5.83254 10.8998
rfingers 7.12502
rthumb 19.9933 -18.0916
lclavicle 2.62147e-015 3.65764e-014
lhumerus -13.9579 3.76923 80.9333
lradius 18.0359
lwrist -32.7958
lhand 2.01647 18.8191
lfingers 7.12502
lthumb 27.5203 46.8278
rfemur -48.8724 12.4736 13.3137
rtibia 21.1205
rfoot -76.1178 -37.9765
rtoes 55.7017
lfemur -5.18138 4.39078 -14.9585
ltibia 6.41494
lfoot -42.8144 28.0923
ltoes 51.3026
1066
root -4.79349 17.396 1.90732 -503.334 -32.2142 -547.281
lowerback -13.8484 0.976974 2.12154
upperback -13.8818 -1.17905 -4.39139
thorax -7.27909 -1.97548 -5.87571
lowerneck -2.49638 17.9804 6.69016
upperneck 10.4738 24.8219 -11.1411
head 5.81442 11.7231 -2.59375
rclavicle -3.2228e-014 -1.82882e-014
rhumerus 308.86 -35.624 -397.783
rradius 15.417
rwrist 11.2716
rhand -3.87668 10.458
rfingers 7.12502
rthumb 21.8724 -18.3258
lclavicle -3.2228e-014 -1.82882e-014
lhumerus -15.5668 4.02915 81.2049
lradius 18.1295
lwrist -32.4039
lhand 2.33882 18.5808
lfingers 7.12502
lthumb 27.8286 46.54
rfemur -48.6113 11.9969 13.5168
rtibia 21.0765
rfoot -76.369 -37.6161
rtoes 55.7986
lfemur -5.77438 3.85674 -15.1059
ltibia 7.0858
lfoot -41.9519 29.4776
ltoes 50.7791
1067
root -4.79125 17.3978 1.91911 -503.305 -32.6473 -547.406
lowerback -13.6641 0.989255 2.09985
upperback -13.9934 -1.1791 -4.46631
thorax -7.51102 -1.99117 -5.94012
lowerneck -2.23372 17.9053 6.93029
upperneck 10.6823 24.7203 -11.0594
head 5.84649 11.688 -2.62559
rclavicle 4.049e-014 3.93594e-014
rhumerus 309.799 -34.1509 -400.649
rradius 15.7809
rwrist 9.61238
rhand -2.33521 10.5652
rfingers 7.12502
rthumb 23.3518 -18.0383
lclavicle 4.049e-014 3.93594e-014
lhumerus -17.247 4.89004 81.1726
lradius 17.9999
lwrist -32.4829
lhand 2.62929 18.5028
lfingers 7.12502
lthumb 28.1063 46.4167
rfemur -48.4585 11.6723 13.6349
rtibia 20.9718
rfoot -76.5031 -37.3604
rtoes 55.8856
lfemur -6.61837 3.4698 -15.3662
ltibia 7.92736
lfoot -39.5283 33.191
ltoes 49.1118
1068
root -4.79007 17.4011 1.92895 -503.322 -33.2245 -547.343
lowerback -13.9576 0.832586 2.08151
upperback -13.746 -1.30622 -4.22784
thorax -7.07145 -1.99506 -5.68956
lowerneck -2.46464 17.9749 6.64478
upperneck 10.4993 24.8237 -11.1518
head 5.8134 11.7229 -2.59367
rclavicle -2.52829e-014 -7.95139e-016
rhumerus 311.321 -33.1691 -403.481
rradius 16.3536
rwrist 8.15224
rhand -0.682196 10.9723
rfingers 7.12502
rthumb 24.9368 -17.4207
lclavicle -2.52829e-014 -7.95139e-016
lhumerus -17.8887 8.017 80.973
lradius 17.2764
lwrist -34.1619
lhand 3.43098 19.0075
lfingers 7.12502
lthumb 28.8723 46.7932
rfemur -48.3501 11.3322 13.9629
rtibia 20.8625
rfoot -76.4802 -37.3669
rtoes 55.9571
lfemur -7.25046 3.05845 -15.3052
ltibia 8.5962
lfoot -36.0967 36.6971
ltoes 46.5253
1069
root -4.79263 17.4082 1.93455 -503.513 -33.9727 -547.195
lowerback -14.2877 0.687419 2.15066
upperback -13.4103 -1.39684 -3.91976
thorax -6.50804 -1.96928 -5.4168
lowerneck -2.77326 17.9748 6.29061
upperneck 10.385 24.8486 -11.3207
head 5.80938 11.7039 -2.57451
rclavicle -2.89729e-014 -3.79679e-014
rhumerus 312.796 -32.1621 -406.042
rradius 16.8605
rwrist 6.55411
rhand 0.702322 11.4587
rfingers 7.12502
rthumb 26.2629 -16.7437
lclavicle -2.89729e-014 -3.79679e-014
lhumerus -18.711 9.54389 81.1257
lradius 17.3122
lwrist -33.8998
lhand 4.93779 19.9192
lfingers 7.12502
lthumb 30.3106 47.4497
rfemur -48.0795 10.9019 14.4892
rtibia 20.812
rfoot -76.5095 -37.4171
rtoes 55.8647
lfemur -7.42004 2.53209 -14.972
ltibia 8.88397
lfoot -31.359 39.8446
ltoes 42.8937
1070
root -4.78877 17.4094 1.9432 -503.723 -34.6892 -547.116
lowerback -14.4178 0.573036 2.12374
upperback -13.193 -1.47126 -3.71886
thorax -6.19002 -1.95338 -5.199
lowerneck -2.78096 17.855 6.24011
upperneck 10.3571 24.6973 -11.4071
head 5.7937 11.6256 -2.61103
rclavicle -7.0817e-016 -3.16068e-014
rhumerus 313.743 -31.713 -407.794
rradius 16.924
rwrist 5.68034
rhand 1.8153 12.1106
rfingers 7.12502
rthumb 27.3279 -15.9285
lclavicle -7.0817e-016 -3.16068e-014
lhumerus -19.9854 9.43195 81.3223
lradius 17.765
lwrist -32.7286
lhand 6.19064 20.1435
lfingers 7.12502
lthumb 31.505 47.4475
rfemur -47.8017 10.4827 14.9547
rtibia 20.7734
rfoot -76.492 -37.5069
rtoes 55.8526
lfemur -7.27998 1.97512 -14.6976
ltibia 9.00232
lfoot -33.8295 37.2321
ltoes 44.2344
1071
root -4.78127 17.4072 1.95867 -503.525 -35.1186 -547.433
lowerback -14.1739 0.646983 2.01113
upperback -13.3879 -1.41112 -4.00023
thorax -6.54578 -1.95638 -5.42425
lowerneck -2.43821 17.6841 6.50028
upperneck 10.4538 24.4263 -11.0559
head 5.72887 11.5403 -2.60372
rclavicle 3.51973e-014 2.82274e-014
rhumerus 313.945 -30.6972 -409.795
rradius 17.3351
rwrist 4.089
rhand 3.09763 11.8825
rfingers 7.12502
rthumb 28.5538 -15.9571
lclavicle 3.51973e-014 2.82274e-014
lhumerus -21.545 10.1241 80.7043
lradius 17.3641
lwrist -33.4812
lhand 6.77236 19.0984
lfingers 7.12502
lthumb 32.059 46.2925
rfemur -47.8751 10.0564 14.9045
rtibia 20.8657
rfoot -76.5785 -37.5546
rtoes 55.8185
lfemur -6.96285 1.44156 -14.9434
ltibia 8.80609
lfoot -40.426 30.116
ltoes 48.0937
1072
root -4.77959 17.4087 1.97514 -503.537 -35.8329 -547.503
lowerback -13.9663 0.736133 2.29295
upperback -13.5002 -1.33741 -4.23032
thorax -6.7965 -1.96856 -5.82308
lowerneck -2.05618 17.5215 6.84953
upperneck 10.5126 24.1831 -10.8953
head 5.68397 11.4613 -2.65917
rclavicle 3.81418e-015 1.70955e-014
rhumerus 314.225 -29.4514 -412.089
rradius 18.3107
rwrist 1.87702
rhand 4.557 10.4925
rfingers 7.12502
rthumb 29.9473 -17.1043
lclavicle 3.81418e-015 1.70955e-014
lhumerus -22.8064 11.6691 79.8567
lradius 16.6416
lwrist -35.1072
lhand 7.23894 18.4275
lfingers 7.12502
lthumb 32.5031 45.5312
rfemur -47.8435 9.52339 15.228
rtibia 21.0664
rfoot -76.8136 -37.4795
rtoes 55.8779
lfemur -6.66527 0.815384 -14.7354
ltibia 8.39885
lfoot -42.1543 29.6392
ltoes 47.4725
1073
root -4.77644 17.409 1.99148 -503.539 -36.4385 -547.737
lowerback -13.6174 0.844027 2.34656
upperback -13.6733 -1.23658 -4.54456
thorax -7.18785 -1.96424 -6.17948
lowerneck -1.12283 17.2617 7.63981
upperneck 10.365 23.8255 -11.0717
head 5.56839 11.3532 -2.92764
rclavicle -6.04305e-014 -5.32743e-014
rhumerus 314.109 -28.3292 -414.108
rradius 19.2708
rwrist -0.0928721
rhand 5.65913 9.90293
rfingers 7.12502
rthumb 30.9985 -17.4988
lclavicle -6.04305e-014 -5.32743e-014
lhumerus -24.3566 11.9073 79.1718
lradius 16.4375
lwrist -35.5248
lhand 8.12102 18.2592
lfingers 7.12502
lthumb 33.3421 45.1866
rfemur -47.7398 9.00469 15.3807
rtibia 21.2872
rfoot -77.0085 -37.3823
rtoes 55.8517
lfemur -6.44487 0.177239 -14.8779
ltibia 8.12193
lfoot -43.5153 29.6733
ltoes 46.5171
